<svg width="48" height="48" viewBox="0 0 48 48" fill="none" xmlns="http://www.w3.org/2000/svg">
<path d="M24 0C10.7448 0 0 10.7448 0 24C0 37.2552 10.7448 48 24 48C37.2552 48 48 37.2552 48 24C48 10.7448 37.2552 0 24 0ZM32.8052 6.26994C33.0828 5.73419 33.4999 5.35948 34.1791 5.19123C34.1585 5.19639 34.143 5.46065 34.1399 5.49264C34.1295 5.59071 34.1223 5.68981 34.1182 5.7889C34.111 5.97058 34.1151 6.15329 34.1337 6.33497C34.1677 6.66323 34.2503 6.98426 34.3814 7.28774C34.5239 7.61703 34.721 7.91226 34.9326 8.20129C35.1463 8.49342 35.359 8.78142 35.5984 9.05703C37.055 10.7365 37.0126 12.6988 37.0126 12.6988C37.0126 12.6988 36.0423 11.0575 33.4276 9.21806C32.3892 8.48826 32.2746 7.296 32.8052 6.26994ZM28.0083 6.41548C32.7215 8.73806 36.5574 11.9484 38.7499 16.8175C39.2434 17.9128 39.5861 19.0741 39.8111 20.2529C39.8741 20.5822 39.9267 20.9125 39.9701 21.2449C39.9773 21.3006 40.0361 21.9974 39.967 21.9974C39.6645 21.3801 39.4126 20.8031 39.1092 20.2539C37.5515 17.4317 35.2898 15.2361 32.7886 13.2697C31.7636 12.4635 30.6921 11.7141 29.6206 10.9688C27.9412 9.80026 27.3734 8.23123 28.0083 6.41548ZM12.2952 9.056C12.5347 8.77936 12.7474 8.49239 12.961 8.20026C13.1716 7.91123 13.3688 7.61703 13.5123 7.28671C13.6434 6.98426 13.727 6.66219 13.76 6.33394C13.7786 6.15226 13.7827 5.96955 13.7755 5.78787C13.7714 5.68877 13.7641 5.58968 13.7538 5.49161C13.7507 5.46065 13.7352 5.19535 13.7146 5.19019C14.3938 5.35845 14.8108 5.73316 15.0885 6.2689C15.6191 7.29497 15.5045 8.48619 14.4671 9.21703C11.8524 11.0565 10.8821 12.6978 10.8821 12.6978C10.8821 12.6978 10.8387 10.7355 12.2952 9.056ZM7.92155 21.2439C7.9649 20.9115 8.01755 20.5812 8.08052 20.2519C8.30555 19.073 8.64826 17.9117 9.14168 16.8165C11.3352 11.9474 15.1711 8.73703 19.8834 6.41445C20.5182 8.23019 19.9505 9.80026 18.271 10.9677C17.1995 11.713 16.128 12.4625 15.103 13.2686C12.6018 15.2351 10.3401 17.4297 8.78245 20.2529C8.48 20.8021 8.2271 21.3781 7.92464 21.9964C7.85652 21.9964 7.91535 21.2996 7.92155 21.2439ZM7.94839 25.9097C7.84516 25.7032 7.85342 24.8702 7.87819 24.6121C8.08052 22.5166 8.94245 20.6834 10.144 18.9905C12.1332 16.1889 14.7427 14.0459 17.5154 12.0795C17.9458 11.7739 18.8893 11.1484 18.8893 11.1463C19.3559 12.1228 19.424 13.0188 18.9533 13.8663C18.6766 14.3659 18.2885 14.8356 17.857 15.2114C16.031 16.8031 14.143 18.3226 12.3314 19.9288C12.2983 19.9577 12.2663 19.9866 12.2333 20.0155C11.8266 20.3778 11.4271 20.7484 11.041 21.1334C10.657 21.5164 10.2875 21.9128 9.94065 22.3288C9.59381 22.7448 9.26968 23.1794 8.97858 23.6356C8.672 24.1156 8.38813 24.6214 8.17445 25.1499C8.07535 25.3966 8.01239 25.6516 7.94839 25.9097ZM8.79071 28.8702C8.14348 27.7285 8.14039 26.5693 8.60697 25.3894C9.22116 23.8348 10.2545 22.5569 11.4581 21.4493C13.2903 19.7636 15.2124 18.1739 17.0973 16.5461C17.4163 16.2715 17.7507 16.0155 18.0738 15.745C18.1987 16.5058 18.1946 17.2645 17.9954 18.015C17.7259 19.0276 17.0932 19.8957 16.3148 20.5822C15.361 21.4235 14.3804 22.2369 13.4441 23.0968C11.6428 24.7546 9.8529 26.689 8.87742 29.0065C8.87742 29.0065 8.87742 29.0065 8.79071 28.8702ZM20.608 46.176C20.4366 45.9933 16.0103 40.2529 13.9551 37.4111C13.8498 37.2583 13.7373 37.1107 13.6289 36.961C12.5554 35.487 11.4746 34.0201 10.5404 32.4521C10.111 31.7316 9.56594 30.9667 9.41832 30.1254C9.27174 29.2945 9.52981 28.4748 9.98193 27.7791C10.2441 27.3755 10.5074 26.9719 10.7995 26.5899C12.1806 24.671 15.5685 21.952 15.6676 21.8994C16.4408 23.3352 16.1435 25.2934 14.9863 26.3474C14.5043 26.7861 13.9706 27.168 13.4679 27.585C12.7938 28.1435 12.0743 28.6596 11.4705 29.2872C10.6446 30.145 10.5528 31.1566 11.1484 32.1806C11.457 32.7112 11.8276 33.2201 12.2467 33.6681C14.527 36.1012 17.2645 37.8839 20.3055 39.2155C20.9301 39.489 21.5783 39.7079 22.2524 39.967C21.7084 42.0232 21.1726 44.0444 20.608 46.176ZM23.9463 26.8501C21.3564 26.8501 19.2568 24.7505 19.2568 22.1605C19.2568 19.5706 21.3564 17.471 23.9463 17.471C26.5363 17.471 28.6359 19.5706 28.6359 22.1605C28.6359 24.7505 26.5363 26.8501 23.9463 26.8501ZM38.4754 30.1265C38.3277 30.9667 37.7827 31.7316 37.3533 32.4532C36.4181 34.0212 35.3383 35.488 34.2648 36.9621C34.1554 37.1117 34.0428 37.2594 33.9386 37.4121C31.8834 40.2539 27.457 45.9933 27.2857 46.177C26.721 44.0454 26.1853 42.0253 25.6403 39.968C26.3133 39.7099 26.9626 39.4901 27.5871 39.2165C30.6281 37.8849 33.3657 36.1022 35.6459 33.6692C36.065 33.2222 36.4366 32.7123 36.7443 32.1817C37.3399 31.1577 37.248 30.1461 36.4222 29.2883C35.8183 28.6617 35.0988 28.1445 34.4248 27.5861C33.9221 27.169 33.3884 26.7871 32.9063 26.3484C31.7492 25.2945 31.4519 23.3363 32.225 21.9004C32.3241 21.953 35.712 24.671 37.0932 26.591C37.3843 26.9729 37.6485 27.3775 37.9107 27.7801C38.3628 28.4759 38.6209 29.2955 38.4754 30.1265ZM39.1019 28.8702C39.0152 29.0065 39.0152 29.0065 39.0152 29.0065C38.0397 26.689 36.2498 24.7546 34.4475 23.0968C33.5112 22.2359 32.5316 21.4235 31.5768 20.5822C30.7985 19.8957 30.1657 19.0276 29.8963 18.015C29.697 17.2645 29.6919 16.5058 29.8178 15.745C30.1409 16.0145 30.4764 16.2705 30.7943 16.5461C32.6803 18.1739 34.6013 19.7636 36.4335 21.4493C37.6372 22.5569 38.6694 23.8348 39.2846 25.3894C39.7523 26.5693 39.7492 27.7285 39.1019 28.8702ZM39.9443 25.9097C39.8803 25.6516 39.8173 25.3966 39.7172 25.1499C39.5035 24.6214 39.2196 24.1146 38.913 23.6356C38.6219 23.1794 38.2978 22.7448 37.951 22.3288C37.6041 21.9128 37.2346 21.5154 36.8506 21.1334C36.4645 20.7484 36.065 20.3778 35.6583 20.0155C35.6253 19.9866 35.5933 19.9577 35.5603 19.9288C33.7486 18.3226 31.8596 16.8021 30.0346 15.2114C29.6031 14.8356 29.215 14.3659 28.9383 13.8663C28.4686 13.0178 28.5368 12.1228 29.0023 11.1463C29.0023 11.1494 29.9458 11.7739 30.3763 12.0795C33.1489 14.0459 35.7584 16.1889 37.7476 18.9905C38.9492 20.6834 39.8111 22.5166 40.0134 24.6121C40.0392 24.8702 40.0475 25.7032 39.9443 25.9097Z" fill="black"/>
</svg>
