<svg width="30" height="31" viewBox="0 0 30 31" fill="none" xmlns="http://www.w3.org/2000/svg">
<path d="M28.3334 22.06V26.06C28.3349 26.4313 28.2589 26.7989 28.1101 27.1391C27.9613 27.4793 27.7431 27.7848 27.4695 28.0358C27.1959 28.2868 26.8728 28.4779 26.5211 28.5969C26.1693 28.7159 25.7966 28.7601 25.4267 28.7266C21.3239 28.2808 17.3827 26.8788 13.9201 24.6333C10.6985 22.5862 7.96719 19.8549 5.92007 16.6333C3.66671 13.1549 2.2644 9.19463 1.82674 5.0733C1.79342 4.70459 1.83724 4.33298 1.95541 3.98213C2.07357 3.63128 2.2635 3.30889 2.51309 3.03546C2.76269 2.76204 3.06648 2.54358 3.40513 2.394C3.74378 2.24441 4.10986 2.16698 4.48007 2.16663H8.48007C9.12715 2.16026 9.75446 2.3894 10.2451 2.81134C10.7357 3.23328 11.0562 3.81923 11.1467 4.45997C11.3156 5.74006 11.6287 6.99694 12.0801 8.20663C12.2595 8.68387 12.2983 9.20252 12.1919 9.70114C12.0856 10.1998 11.8386 10.6574 11.4801 11.02L9.78674 12.7133C11.6848 16.0514 14.4487 18.8152 17.7867 20.7133L19.4801 19.02C19.8426 18.6615 20.3003 18.4144 20.7989 18.3081C21.2975 18.2018 21.8162 18.2406 22.2934 18.42C23.5031 18.8714 24.76 19.1845 26.0401 19.3533C26.6878 19.4447 27.2793 19.7709 27.7021 20.27C28.125 20.769 28.3496 21.4061 28.3334 22.06Z" stroke="#1B1B1B" stroke-width="2.66667" stroke-linecap="round" stroke-linejoin="round"/>
</svg>
