<svg width="32" height="33" viewBox="0 0 32 33" fill="none" xmlns="http://www.w3.org/2000/svg">
<path d="M22.6665 3.16666H9.33317C5.65127 3.16666 2.6665 6.15143 2.6665 9.83333V23.1667C2.6665 26.8486 5.65127 29.8333 9.33317 29.8333H22.6665C26.3484 29.8333 29.3332 26.8486 29.3332 23.1667V9.83333C29.3332 6.15143 26.3484 3.16666 22.6665 3.16666Z" stroke="#1B1B1B" stroke-width="2.66667" stroke-linecap="round" stroke-linejoin="round"/>
<path d="M21.3336 15.66C21.4981 16.7697 21.3086 17.903 20.7919 18.8987C20.2753 19.8944 19.4578 20.7019 18.4558 21.2062C17.4537 21.7106 16.3182 21.8861 15.2106 21.7079C14.1031 21.5297 13.0799 21.0068 12.2867 20.2135C11.4935 19.4203 10.9706 18.3972 10.7924 17.2896C10.6141 16.1821 10.7897 15.0465 11.294 14.0445C11.7984 13.0425 12.6058 12.225 13.6016 11.7083C14.5973 11.1917 15.7306 11.0021 16.8403 11.1667C17.9722 11.3345 19.0201 11.8619 19.8292 12.6711C20.6383 13.4802 21.1657 14.5281 21.3336 15.66Z" stroke="#1B1B1B" stroke-width="2.66667" stroke-linecap="round" stroke-linejoin="round"/>
<path d="M23.3335 9.16666H23.346" stroke="#1B1B1B" stroke-width="2.66667" stroke-linecap="round" stroke-linejoin="round"/>
</svg>
